<svg class="svg-icon" style="width: 1.001953125em; height: 1em;vertical-align: middle;fill: currentColor;overflow: hidden;" viewBox="0 0 1026 1024" version="1.1" xmlns="http://www.w3.org/2000/svg"><path d="M733.866667 580.266667c-6.826667 0-13.653333-6.826667-17.066667-13.653334l-68.266667-307.2c-3.413333-10.24 3.413333-17.066667 13.653334-20.48 10.24-3.413333 17.066667 3.413333 20.48 13.653334l68.266666 307.2c3.413333 10.24-3.413333 17.066667-13.653333 20.48h-3.413333z" fill="" /><path d="M402.773333 1024c-37.546667 0-78.506667-13.653333-105.813333-37.546667l-256-273.066666c-51.2-51.2-51.2-139.946667 0-194.56l477.866667-477.866667c54.613333-51.2 139.946667-51.2 194.56 0l273.066666 256c47.786667 47.786667 58.026667 157.013333 0 211.626667l-477.866666 477.866666c-27.306667 23.893333-68.266667 37.546667-105.813334 37.546667zM614.4 34.133333c-27.306667 0-54.613333 10.24-75.093333 30.72l-477.866667 477.866667c-37.546667 40.96-37.546667 109.226667 0 146.773333l256 273.066667c40.96 37.546667 122.88 40.96 163.84 0l477.866667-477.866667c40.96-40.96 34.133333-126.293333 0-163.84l-273.066667-256c-17.066667-20.48-44.373333-30.72-71.68-30.72z" fill="" /><path d="M290.133333 785.066667c-3.413333 0-10.24 0-13.653333-3.413334-6.826667-6.826667-6.826667-17.066667 0-23.893333l136.533333-136.533333c6.826667-6.826667 17.066667-6.826667 23.893334 0s6.826667 17.066667 0 23.893333l-136.533334 136.533333s-6.826667 3.413333-10.24 3.413334zM85.333333 733.866667c-3.413333 0-10.24 0-13.653333-3.413334-6.826667-6.826667-6.826667-17.066667 0-23.893333L703.146667 71.68c6.826667-6.826667 17.066667-6.826667 23.893333 0s6.826667 17.066667 0 23.893333L95.573333 727.04c0 3.413333-6.826667 6.826667-10.24 6.826667zM836.266667 477.866667c-27.306667 0-51.2-23.893333-51.2-51.2s23.893333-51.2 51.2-51.2 51.2 23.893333 51.2 51.2-23.893333 51.2-51.2 51.2z m0-68.266667c-10.24 0-17.066667 6.826667-17.066667 17.066667s6.826667 17.066667 17.066667 17.066666 17.066667-6.826667 17.066666-17.066666-6.826667-17.066667-17.066666-17.066667zM580.266667 460.8c-27.306667 0-51.2-23.893333-51.2-51.2s23.893333-51.2 51.2-51.2 51.2 23.893333 51.2 51.2-23.893333 51.2-51.2 51.2z m0-68.266667c-10.24 0-17.066667 6.826667-17.066667 17.066667s6.826667 17.066667 17.066667 17.066667 17.066667-6.826667 17.066666-17.066667-6.826667-17.066667-17.066666-17.066667z" fill="" /><path d="M392.533333 887.466667c-3.413333 0-10.24 0-13.653333-3.413334-6.826667-6.826667-6.826667-17.066667 0-23.893333l238.933333-238.933333c6.826667-6.826667 17.066667-6.826667 23.893334 0s6.826667 17.066667 0 23.893333l-238.933334 238.933333s-6.826667 3.413333-10.24 3.413334z" fill="#FF0000" /></svg>